<svg xmlns="http://www.w3.org/2000/svg" xmlns:xlink="http://www.w3.org/1999/xlink" viewBox="0 0 1200.5 582.9"><defs><path id="a" d="M0 0h1200v582.9H0z"/></defs><clipPath id="b"><use xlink:href="#a" overflow="visible"/></clipPath><g clip-path="url(#b)"><path fill="#31326e" d="M0 0h1200v582.9H0z"/><linearGradient id="c" gradientUnits="userSpaceOnUse" x1="-101.874" y1="-673.57" x2="-102.634" y2="-798.01" gradientTransform="rotate(45.001 -847.186 16.164)"><stop offset="0" stop-color="#fff" stop-opacity="0"/><stop offset="1" stop-color="#fff" stop-opacity=".15"/></linearGradient><path opacity=".5" fill="url(#c)" d="M-5-8.9L136.1-150 372.8 86.7 231.6 227.8z"/><radialGradient id="d" cx="198.219" cy="-627.463" r="1" gradientTransform="matrix(-105.5003 3.4931 -5.869 -176.8757 17613.834 -111612.07)" gradientUnits="userSpaceOnUse"><stop offset="0" stop-color="#fff"/><stop offset="1" stop-color="#fff" stop-opacity="0"/></radialGradient><path transform="rotate(-45.001 183.897 38.902)" opacity=".2" fill="none" stroke="url(#d)" d="M84.6-127.9h198.6v333.7H84.6z"/><linearGradient id="e" gradientUnits="userSpaceOnUse" x1="239.228" y1="-671.658" x2="572.298" y2="-608.978" gradientTransform="rotate(45.001 -417.356 41.161)"><stop offset="0" stop-color="#fff" stop-opacity="0"/><stop offset="1" stop-color="#fff" stop-opacity=".15"/></linearGradient><path opacity=".5" fill="url(#e)" d="M390 51l176-176 295 295-176 176z"/><radialGradient id="f" cx="198.468" cy="-630.405" r="1" gradientTransform="matrix(-81.9961 -122.4992 205.3792 -137.4828 146465.328 -62165.77)" gradientUnits="userSpaceOnUse"><stop offset="0" stop-color="#fff"/><stop offset="1" stop-color="#fff" stop-opacity="0"/></radialGradient><path transform="rotate(-45.001 625.502 110.508)" opacity=".2" fill="none" stroke="url(#f)" d="M501.6-97.6h247.9v416.2H501.6z"/><linearGradient id="g" gradientUnits="userSpaceOnUse" x1="965.411" y1="-640.473" x2="754.781" y2="-836.233" gradientTransform="rotate(45.001 103.138 -16.853)"><stop offset="0" stop-color="#fff" stop-opacity="0"/><stop offset="1" stop-color="#fff" stop-opacity=".15"/></linearGradient><path opacity=".5" fill="url(#g)" d="M896 7.5L1086.5-183l319.3 319.3-190.5 190.5z"/><radialGradient id="h" cx="192.309" cy="-630.612" r="1" gradientTransform="matrix(236.1454 90.4107 -151.5825 395.9162 -140134.313 232270.219)" gradientUnits="userSpaceOnUse"><stop offset="0" stop-color="#fff"/><stop offset="1" stop-color="#fff" stop-opacity="0"/></radialGradient><path transform="rotate(-45.001 1150.901 71.909)" opacity=".2" fill="none" stroke="url(#h)" d="M1016.7-153.4H1285v450.6h-268.3z"/><radialGradient id="i" cx="190.11" cy="-627.555" r="1" gradientTransform="scale(168.4046 100.4374) rotate(90 -215.753 -407.56)" gradientUnits="userSpaceOnUse"><stop offset="0" stop-color="#fff"/><stop offset="1" stop-color="#fff" stop-opacity="0"/></radialGradient><path transform="rotate(-45.001 781.896 101.907)" opacity=".2" fill="none" stroke="url(#i)" d="M628.2-156.2h307.5V360H628.2z"/><linearGradient id="j" gradientUnits="userSpaceOnUse" x1="-266.874" y1="-122.57" x2="-267.634" y2="-247.01" gradientTransform="rotate(45.001 -1012.177 567.172)"><stop offset="0" stop-color="#fff" stop-opacity="0"/><stop offset="1" stop-color="#fff" stop-opacity=".15"/></linearGradient><path opacity=".5" fill="url(#j)" d="M-170 542.1L-28.9 401l236.7 236.6L66.7 778.8z"/><radialGradient id="k" cx="187.741" cy="-626.213" r="1" gradientTransform="matrix(0 64.9973 -108.9793 0 -68271.555 -11788.93)" gradientUnits="userSpaceOnUse"><stop offset="0" stop-color="#fff"/><stop offset="1" stop-color="#fff" stop-opacity="0"/></radialGradient><path transform="rotate(-45.001 18.893 589.901)" opacity=".2" fill="none" stroke="url(#k)" d="M-80.4 423.1h198.6v333.7H-80.4z"/><linearGradient id="l" gradientUnits="userSpaceOnUse" x1="-51.874" y1="-129.57" x2="-52.634" y2="-254.01" gradientTransform="rotate(45.001 -797.18 560.168)"><stop offset="0" stop-color="#fff" stop-opacity="0"/><stop offset="1" stop-color="#fff" stop-opacity=".15"/></linearGradient><path opacity=".5" fill="url(#l)" d="M45 535.1L186.1 394l236.7 236.7-141.2 141.1z"/><radialGradient id="m" cx="187.741" cy="-626.213" r="1" gradientTransform="matrix(0 64.9973 -108.9793 0 -68056.555 -11795.927)" gradientUnits="userSpaceOnUse"><stop offset="0" stop-color="#fff"/><stop offset="1" stop-color="#fff" stop-opacity="0"/></radialGradient><path transform="rotate(-45.001 233.892 582.906)" opacity=".2" fill="none" stroke="url(#m)" d="M134.6 416.1h198.6v333.7H134.6z"/><linearGradient id="n" gradientUnits="userSpaceOnUse" x1="-375.994" y1="-489.158" x2="-184.584" y2="-290.418" gradientTransform="rotate(45.001 -1060.183 287.17)"><stop offset="0" stop-color="#fff" stop-opacity="0"/><stop offset="1" stop-color="#fff" stop-opacity=".15"/></linearGradient><path opacity=".5" fill="url(#n)" d="M-218 262.1L-76.9 121l236.7 236.7L18.6 498.8z"/><radialGradient id="o" cx="198.524" cy="-631.339" r="1" gradientTransform="matrix(-32.4986 -125.0023 209.5723 -54.4896 138787.875 -9085.501)" gradientUnits="userSpaceOnUse"><stop offset="0" stop-color="#fff"/><stop offset="1" stop-color="#fff" stop-opacity="0"/></radialGradient><path transform="rotate(-45.001 -29.105 309.9)" opacity=".2" fill="none" stroke="url(#o)" d="M-128.4 143.1H70.2v333.7h-198.6z"/><linearGradient id="p" gradientUnits="userSpaceOnUse" x1="-323.582" y1="-582.42" x2="-52.171" y2="-834.77" gradientTransform="rotate(45.001 -980.875 -16.838)"><stop offset="0" stop-color="#fff" stop-opacity="0"/><stop offset="1" stop-color="#fff" stop-opacity=".15"/></linearGradient><path opacity=".5" fill="url(#p)" d="M-175-5.5L2.5-183 300 114.5 122.5 292z"/><radialGradient id="q" cx="196.735" cy="-629.59" r="1" gradientTransform="matrix(-218.7718 -124.472 208.6884 -366.7975 174737.313 -206325.36)" gradientUnits="userSpaceOnUse"><stop offset="0" stop-color="#fff"/><stop offset="1" stop-color="#fff" stop-opacity="0"/></radialGradient><path transform="rotate(-45.001 62.498 54.508)" opacity=".2" fill="none" stroke="url(#q)" d="M-62.5-155.4h250v419.8h-250z"/><linearGradient id="r" gradientUnits="userSpaceOnUse" x1="63.126" y1="-333.57" x2="62.366" y2="-458.01" gradientTransform="rotate(45.001 -682.175 356.16)"><stop offset="0" stop-color="#fff" stop-opacity="0"/><stop offset="1" stop-color="#fff" stop-opacity=".15"/></linearGradient><path opacity=".5" fill="url(#r)" d="M160 331.1L301.1 190l236.7 236.6-141.2 141.2z"/><radialGradient id="s" cx="187.741" cy="-626.213" r="1" gradientTransform="matrix(0 64.9973 -108.9793 0 -67941.563 -11999.934)" gradientUnits="userSpaceOnUse"><stop offset="0" stop-color="#fff"/><stop offset="1" stop-color="#fff" stop-opacity="0"/></radialGradient><path transform="rotate(-45.001 348.892 378.899)" opacity=".2" fill="none" stroke="url(#s)" d="M249.6 212.1h198.6v333.7H249.6z"/><linearGradient id="t" gradientUnits="userSpaceOnUse" x1="865.124" y1="-96.56" x2="864.374" y2="-221.01" gradientTransform="rotate(45.001 119.829 593.158)"><stop offset="0" stop-color="#fff" stop-opacity="0"/><stop offset="1" stop-color="#fff" stop-opacity=".15"/></linearGradient><path opacity=".5" fill="url(#t)" d="M962 568.1L1103.1 427l236.7 236.6-141.1 141.2z"/><radialGradient id="u" cx="187.741" cy="-626.213" r="1" gradientTransform="matrix(0 64.9973 -108.9793 0 -67139.57 -11762.94)" gradientUnits="userSpaceOnUse"><stop offset="0" stop-color="#fff"/><stop offset="1" stop-color="#fff" stop-opacity="0"/></radialGradient><path transform="rotate(-45.001 1150.898 615.914)" opacity=".2" fill="none" stroke="url(#u)" d="M1051.6 449.1h198.6v333.7h-198.6z"/><linearGradient id="v" gradientUnits="userSpaceOnUse" x1="847.524" y1="-405.657" x2="921.474" y2="-279.887" gradientTransform="rotate(45.001 142.821 376.16)"><stop offset="0" stop-color="#fff" stop-opacity="0"/><stop offset="1" stop-color="#fff" stop-opacity=".15"/></linearGradient><path opacity=".5" fill="url(#v)" d="M985 351.2L1126.1 210l236.7 236.7-141.1 141.1z"/><radialGradient id="w" cx="188.88" cy="-630.723" r="1" gradientTransform="matrix(87.0024 59.3545 -99.5111 145.869 -78157.32 81012.734)" gradientUnits="userSpaceOnUse"><stop offset="0" stop-color="#fff"/><stop offset="1" stop-color="#fff" stop-opacity="0"/></radialGradient><path transform="rotate(-45.001 1173.901 398.918)" opacity=".2" fill="none" stroke="url(#w)" d="M1074.6 232.1h198.6v333.7h-198.6z"/><linearGradient id="x" gradientUnits="userSpaceOnUse" x1="798.425" y1="-330.23" x2="797.295" y2="-515.68" gradientTransform="rotate(45.001 -28.976 299.148)"><stop offset="0" stop-color="#fff" stop-opacity="0"/><stop offset="1" stop-color="#fff" stop-opacity=".15"/></linearGradient><path opacity=".5" fill="url(#x)" d="M744 343.3L954.3 133 1307 485.6 1096.7 696z"/><radialGradient id="y" cx="189.951" cy="-627.456" r="1" gradientTransform="matrix(0 96.8595 -162.4083 0 -100943.93 -18246.598)" gradientUnits="userSpaceOnUse"><stop offset="0" stop-color="#fff"/><stop offset="1" stop-color="#fff" stop-opacity="0"/></radialGradient><path transform="rotate(-45.001 1025.504 414.505)" opacity=".2" fill="none" stroke="url(#y)" d="M877.3 165.6h296.5v497.7H877.3z"/><linearGradient id="z" gradientUnits="userSpaceOnUse" x1="375.126" y1="-96.57" x2="374.366" y2="-221.01" gradientTransform="rotate(45.001 -370.178 593.162)"><stop offset="0" stop-color="#fff" stop-opacity="0"/><stop offset="1" stop-color="#fff" stop-opacity=".15"/></linearGradient><path opacity=".5" fill="url(#z)" d="M472 568.1L613.1 427l236.7 236.7-141.2 141.1z"/><radialGradient id="A" cx="187.741" cy="-626.213" r="1" gradientTransform="matrix(0 64.9973 -108.9793 0 -67629.563 -11762.927)" gradientUnits="userSpaceOnUse"><stop offset="0" stop-color="#fff"/><stop offset="1" stop-color="#fff" stop-opacity="0"/></radialGradient><path transform="rotate(-45.001 660.893 615.91)" opacity=".2" fill="none" stroke="url(#A)" d="M561.6 449.1h198.6v333.7H561.6z"/><linearGradient id="B" gradientUnits="userSpaceOnUse" x1="279.126" y1="-286.57" x2="278.366" y2="-411.01" gradientTransform="rotate(45.001 -466.172 403.155)"><stop offset="0" stop-color="#fff" stop-opacity="0"/><stop offset="1" stop-color="#fff" stop-opacity=".15"/></linearGradient><path opacity=".5" fill="url(#B)" d="M376 378.1L517.1 237l236.7 236.6-141.2 141.2z"/><radialGradient id="C" cx="187.741" cy="-626.213" r="1" gradientTransform="matrix(0 64.9973 -108.9793 0 -67725.563 -11952.935)" gradientUnits="userSpaceOnUse"><stop offset="0" stop-color="#fff"/><stop offset="1" stop-color="#fff" stop-opacity="0"/></radialGradient><path transform="rotate(-45.001 564.892 425.9)" opacity=".2" fill="none" stroke="url(#C)" d="M465.6 259.1h198.6v333.7H465.6z"/><linearGradient id="D" gradientUnits="userSpaceOnUse" x1="97.829" y1="-661.691" x2="283.179" y2="-588.921" gradientTransform="rotate(45.001 -645.185 52.164)"><stop offset="0" stop-color="#fff" stop-opacity="0"/><stop offset="1" stop-color="#fff" stop-opacity=".15"/></linearGradient><path opacity=".5" fill="url(#D)" d="M197 27.1L338.1-114l236.7 236.7-141.2 141.1z"/><radialGradient id="E" cx="191.05" cy="-631.871" r="1" gradientTransform="matrix(129.4995 8.9944 -15.0897 217.1242 -33829.074 135604.86)" gradientUnits="userSpaceOnUse"><stop offset="0" stop-color="#fff"/><stop offset="1" stop-color="#fff" stop-opacity="0"/></radialGradient><path transform="rotate(-45.001 385.899 74.905)" opacity=".2" fill="none" stroke="url(#E)" d="M286.6-91.9h198.6v333.7H286.6z"/></g></svg>